<?xml version="1.0" standalone="no"?>
<!DOCTYPE svg PUBLIC "-//W3C//DTD SVG 20010904//EN"
 "http://www.w3.org/TR/2001/REC-SVG-20010904/DTD/svg10.dtd">
<svg version="1.0" xmlns="http://www.w3.org/2000/svg"
 width="1280.000000pt" height="878.000000pt" viewBox="0 0 1280.000000 878.000000"
 preserveAspectRatio="xMidYMid meet">
<metadata>
Created by potrace 1.15, written by Peter Selinger 2001-2017
</metadata>
<g transform="translate(0.000000,878.000000) scale(0.100000,-0.100000)"
fill="#000000" stroke="none">
<path d="M1220 8485 c0 -3 -9 -46 -20 -97 -16 -68 -30 -103 -56 -139 -19 -26
-56 -100 -83 -166 l-48 -118 -7 -217 c-6 -212 -6 -219 16 -260 19 -38 22 -65
29 -247 7 -189 6 -207 -12 -255 -53 -139 -161 -540 -195 -729 -22 -125 -49
-237 -69 -292 -32 -87 -34 -100 -49 -350 -9 -143 -16 -352 -16 -465 -1 -113
-6 -246 -13 -295 -22 -149 7 -429 71 -716 l51 -226 113 -189 113 -188 65 -36
c54 -31 87 -62 198 -191 149 -173 159 -180 330 -234 84 -27 116 -42 128 -60
11 -17 22 -93 37 -264 l22 -239 -27 -113 c-16 -62 -46 -219 -68 -348 -36 -206
-53 -277 -140 -564 -109 -361 -150 -456 -234 -544 -38 -41 -56 -53 -79 -53
-17 0 -38 -7 -47 -15 -12 -11 -196 -75 -216 -75 -2 0 -37 -38 -77 -84 -71 -82
-74 -88 -87 -160 l-13 -74 43 -60 42 -60 80 -7 c44 -4 146 -18 227 -30 l146
-23 153 51 c84 27 164 59 178 70 14 11 48 46 75 79 47 56 49 62 49 119 0 44
14 106 51 227 58 194 54 180 237 677 191 518 246 649 364 859 l100 181 2 85
c1 63 -3 94 -16 119 -16 30 -25 101 -14 101 3 0 45 -17 95 -39 82 -36 223
-131 262 -177 8 -11 58 -87 111 -169 83 -132 100 -167 141 -290 40 -121 51
-171 77 -364 48 -360 49 -440 5 -815 l-36 -320 -39 -45 c-76 -91 -78 -92 -219
-116 -150 -25 -176 -40 -241 -135 -38 -56 -40 -63 -40 -134 0 -100 10 -109
185 -184 206 -88 195 -86 309 -62 54 11 100 20 103 20 3 0 49 44 102 98 60 60
125 114 171 142 42 25 109 79 151 122 l76 78 7 272 c6 221 5 297 -8 399 l-16
127 70 448 c38 247 77 471 85 498 8 27 15 64 15 81 0 18 7 38 15 45 8 7 15 21
15 31 0 11 24 68 54 127 29 59 70 148 91 197 21 50 42 94 46 99 5 5 45 2 96
-9 232 -46 247 -46 425 -14 183 32 308 38 308 15 0 -8 54 -92 120 -187 l120
-172 156 -105 c177 -118 248 -147 379 -158 69 -5 88 -11 105 -29 l22 -23 -22
-139 c-15 -98 -33 -167 -60 -238 -30 -77 -40 -121 -46 -190 -10 -129 -63 -274
-155 -421 -74 -118 -92 -134 -149 -134 -15 0 -77 -12 -136 -26 -131 -30 -227
-81 -301 -156 -44 -45 -52 -60 -58 -104 -6 -48 -5 -53 22 -75 16 -13 57 -37
91 -53 42 -20 64 -37 68 -51 5 -20 14 -23 117 -28 168 -10 277 -8 431 7 138
14 138 15 205 59 l67 45 72 188 c39 104 116 316 171 471 72 201 124 330 182
445 75 149 170 406 169 456 -1 36 -45 69 -125 96 l-80 27 -82 122 -82 122 -6
160 -7 160 44 -47 c24 -26 174 -165 333 -309 201 -181 325 -285 405 -338 l115
-78 229 -57 c126 -31 277 -72 336 -91 64 -21 127 -35 157 -35 44 0 61 -7 131
-52 73 -48 90 -66 178 -187 l98 -134 113 -286 113 -286 6 -110 c8 -130 5 -135
-96 -161 -49 -12 -79 -29 -131 -70 -60 -49 -69 -61 -93 -127 -14 -39 -26 -78
-26 -85 0 -7 19 -35 43 -63 l42 -49 122 0 c70 0 124 4 128 10 4 6 58 10 128
10 91 0 128 4 143 14 12 8 51 20 87 27 36 7 70 15 75 18 5 3 46 79 91 169 l81
162 -64 223 c-35 122 -93 314 -129 427 -62 195 -67 218 -101 470 -33 239 -39
268 -64 305 -40 61 -92 102 -163 129 -36 13 -86 36 -113 50 -27 14 -60 26 -73
26 -18 0 -79 54 -236 206 -292 284 -309 310 -410 630 l-76 242 -6 388 -6 389
23 -26 c13 -15 48 -39 78 -54 30 -15 105 -64 165 -109 61 -45 171 -119 245
-164 130 -79 142 -84 330 -138 107 -31 276 -72 375 -90 124 -24 189 -41 208
-55 15 -11 33 -18 40 -16 17 6 86 -19 272 -98 88 -37 220 -89 293 -117 158
-58 205 -63 592 -73 323 -8 518 8 633 54 56 22 108 33 214 45 216 24 357 76
622 228 185 106 231 138 448 313 l242 196 176 255 c97 140 180 265 184 277 5
12 12 47 16 77 4 30 22 138 41 239 19 101 33 185 32 186 -2 2 -12 5 -24 9 -16
5 -38 -10 -100 -67 -66 -62 -107 -89 -254 -165 l-175 -91 -205 -22 -205 -23
-335 43 c-270 34 -356 49 -445 76 -60 18 -206 50 -323 69 -243 41 -851 180
-959 219 -23 9 -75 19 -115 23 -52 4 -82 13 -103 29 -23 17 -51 24 -113 29
-47 4 -120 20 -169 37 -116 39 -452 119 -500 119 -21 0 -79 13 -130 30 -138
45 -424 78 -742 86 -347 8 -413 -1 -583 -84 -67 -32 -134 -63 -148 -67 -14 -4
-52 -27 -84 -51 -91 -67 -109 -64 -264 45 -138 96 -335 201 -380 201 -15 0
-60 9 -99 20 -67 18 -86 19 -297 10 -223 -9 -227 -10 -433 -61 l-208 -52 -150
38 c-88 23 -181 53 -225 75 l-75 37 -170 -7 c-150 -7 -201 -4 -435 21 -146 16
-298 29 -338 29 -48 0 -163 -18 -347 -55 -150 -30 -283 -55 -294 -55 -28 0
-280 152 -281 169 0 8 9 24 20 36 11 12 25 48 31 81 8 43 29 89 76 169 l66
110 19 259 19 258 -47 99 c-55 116 -54 131 22 179 63 40 110 109 177 262 89
202 215 541 225 607 8 57 7 62 -15 83 -19 18 -26 20 -45 10 -13 -7 -90 -16
-173 -20 l-150 -9 -140 -58 c-116 -49 -164 -76 -279 -158 l-140 -99 -85 6
c-47 4 -122 16 -166 28 -44 11 -174 35 -289 53 -193 29 -213 31 -255 18 -67
-20 -116 -3 -132 46 -18 53 -218 344 -396 574 -86 111 -161 205 -167 209 -13
9 -46 11 -46 3z"/>
</g>
</svg>
